<svg width="25" height="28" viewBox="0 0 25 28" fill="none" xmlns="http://www.w3.org/2000/svg">
<path d="M3.90627 13.125C3.69907 13.125 3.50035 13.2172 3.35384 13.3813C3.20733 13.5454 3.12502 13.7679 3.12502 14C3.12502 14.2321 3.20733 14.4546 3.35384 14.6187C3.50035 14.7828 3.69907 14.875 3.90627 14.875L19.0578 14.875L12.7594 21.224C12.6089 21.3801 12.5193 21.5962 12.5099 21.8257C12.5004 22.0552 12.5719 22.2796 12.709 22.4505C12.846 22.6215 13.0375 22.7252 13.2422 22.7393C13.447 22.7534 13.6484 22.6768 13.8031 22.526L21.6156 14.651C21.6972 14.5689 21.7625 14.4686 21.8071 14.3564C21.8518 14.2443 21.8749 14.1228 21.8749 14C21.8749 13.8772 21.8518 13.7558 21.8071 13.6436C21.7625 13.5314 21.6972 13.4311 21.6156 13.349L13.8031 5.47401C13.6484 5.32321 13.447 5.2466 13.2422 5.26072C13.0375 5.27484 12.846 5.37857 12.709 5.54949C12.5719 5.72042 12.5004 5.94485 12.5099 6.17432C12.5193 6.4038 12.6089 6.61991 12.7594 6.77601L19.0578 13.125L3.90627 13.125Z" fill="white"/>
</svg>
