<svg width="25" height="28" viewBox="0 0 25 28" fill="none" xmlns="http://www.w3.org/2000/svg">
<path d="M21.0937 13.125C21.3009 13.125 21.4996 13.2172 21.6462 13.3813C21.7927 13.5454 21.875 13.7679 21.875 14C21.875 14.2321 21.7927 14.4546 21.6462 14.6187C21.4996 14.7828 21.3009 14.875 21.0937 14.875L5.94217 14.875L12.2406 21.224C12.3911 21.3801 12.4807 21.5962 12.4901 21.8257C12.4996 22.0552 12.4281 22.2796 12.291 22.4505C12.154 22.6215 11.9625 22.7252 11.7578 22.7393C11.553 22.7534 11.3516 22.6768 11.1969 22.526L3.38436 14.651C3.30278 14.5689 3.23753 14.4686 3.19287 14.3564C3.1482 14.2443 3.12512 14.1228 3.12512 14C3.12512 13.8772 3.1482 13.7558 3.19287 13.6436C3.23753 13.5314 3.30278 13.4311 3.38436 13.349L11.1969 5.47401C11.3516 5.32321 11.553 5.2466 11.7578 5.26072C11.9625 5.27484 12.154 5.37857 12.291 5.54949C12.4281 5.72042 12.4996 5.94485 12.4901 6.17432C12.4807 6.4038 12.3911 6.61991 12.2406 6.77601L5.94217 13.125L21.0937 13.125Z" fill="white"/>
</svg>
