<svg width="17" height="17" viewBox="0 0 17 17" fill="none" xmlns="http://www.w3.org/2000/svg">
<path d="M8.275 3.77506L9.52499 2.52506C9.85002 2.20004 10.2359 1.94221 10.6605 1.76631C11.0852 1.59041 11.5403 1.49988 12 1.49988C12.4596 1.49988 12.9148 1.59041 13.3395 1.76631C13.7641 1.94221 14.15 2.20003 14.475 2.52506C14.8 2.85008 15.0578 3.23593 15.2337 3.6606C15.4096 4.08526 15.5002 4.54041 15.5002 5.00006C15.5002 5.45971 15.4096 5.91486 15.2337 6.33952C15.0578 6.76418 14.8 7.15003 14.475 7.47506L11.975 9.97506C11.65 10.3001 11.2641 10.5579 10.8395 10.7339C10.4148 10.9098 9.95965 11.0003 9.5 11.0003C9.04034 11.0003 8.58518 10.9098 8.16052 10.7339C7.73586 10.5579 7.35001 10.3001 7.025 9.97506C6.89259 9.8328 6.82048 9.64474 6.82384 9.45043C6.8272 9.25611 6.90575 9.07066 7.043 8.93306C7.1806 8.79581 7.36605 8.71726 7.56036 8.7139C7.75468 8.71054 7.94273 8.78265 8.085 8.91506C8.27061 9.10125 8.49114 9.24898 8.73396 9.34978C8.97677 9.45057 9.23709 9.50246 9.5 9.50246C9.7629 9.50246 10.0232 9.45057 10.266 9.34978C10.5088 9.24898 10.7294 9.10125 10.915 8.91506L13.415 6.41506C13.772 6.03611 13.9674 5.53298 13.9596 5.0124C13.9519 4.49182 13.7416 3.99473 13.3735 3.62658C13.0053 3.25843 12.5082 3.04819 11.9877 3.04043C11.4671 3.03268 10.9639 3.22803 10.585 3.58506L9.335 4.83506C9.19273 4.96747 9.00468 5.03957 8.81036 5.03621C8.61605 5.03286 8.4306 4.9543 8.293 4.81706C8.15575 4.67945 8.0772 4.494 8.07384 4.29969C8.07048 4.10537 8.14259 3.91732 8.275 3.77506ZM3.585 13.4151C3.77061 13.6012 3.99114 13.749 4.23396 13.8498C4.47677 13.9506 4.73709 14.0025 5 14.0025C5.2629 14.0025 5.52322 13.9506 5.76604 13.8498C6.00885 13.749 6.22938 13.6012 6.415 13.4151L7.665 12.1651C7.80726 12.0326 7.99531 11.9605 8.18963 11.9639C8.38394 11.9673 8.56939 12.0458 8.707 12.1831C8.84424 12.3207 8.92279 12.5061 8.92615 12.7004C8.92951 12.8947 8.8574 13.0828 8.725 13.2251L7.475 14.4751C7.14997 14.8001 6.76412 15.0579 6.33946 15.2338C5.91479 15.4097 5.45965 15.5002 5 15.5002C4.07169 15.5002 3.18141 15.1315 2.525 14.4751C1.86858 13.8186 1.49982 12.9284 1.49982 12.0001C1.49982 11.0718 1.86858 10.1815 2.525 9.52506L5.025 7.02506C5.35001 6.70001 5.73586 6.44217 6.16052 6.26626C6.58518 6.09035 7.04034 5.9998 7.5 5.9998C7.95965 5.9998 8.41481 6.09035 8.83947 6.26626C9.26413 6.44217 9.64999 6.70001 9.975 7.02506C10.1074 7.16732 10.1795 7.35537 10.1762 7.54969C10.1728 7.744 10.0942 7.92945 9.957 8.06706C9.81939 8.2043 9.63394 8.28286 9.43963 8.28621C9.24531 8.28957 9.05726 8.21747 8.915 8.08506C8.72938 7.89887 8.50885 7.75114 8.26604 7.65034C8.02322 7.54954 7.7629 7.49765 7.5 7.49765C7.23709 7.49765 6.97677 7.54954 6.73396 7.65034C6.49114 7.75114 6.27061 7.89887 6.085 8.08506L3.585 10.5851C3.3988 10.7707 3.25107 10.9912 3.15028 11.234C3.04948 11.4768 2.99759 11.7372 2.99759 12.0001C2.99759 12.263 3.04948 12.5233 3.15028 12.7661C3.25107 13.0089 3.3988 13.2294 3.585 13.4151Z" fill="white"/>
</svg>
